<svg width="20" height="20" viewBox="0 0 20 20" fill="none" xmlns="http://www.w3.org/2000/svg">
<path d="M11.3984 20H1.07422C0.480469 20 0 19.5195 0 18.9258V16.1328C0 15.5391 0.480469 15.0586 1.07422 15.0586H11.3945C11.9883 15.0586 12.4688 15.5391 12.4688 16.1328V18.9258C12.4727 19.5195 11.9922 20 11.3984 20Z" fill="#4D68C4"/>
<path d="M18.9258 12.4727H1.07422C0.480469 12.4727 0 11.9922 0 11.3984V8.60547C0 8.01172 0.480469 7.53125 1.07422 7.53125H18.9258C19.5195 7.53125 20 8.01172 20 8.60547V11.3984C20 11.9922 19.5195 12.4727 18.9258 12.4727Z" fill="#5190EF"/>
<path d="M18.9258 4.94531H8.60156C8.00781 4.94531 7.52734 4.46484 7.52734 3.87109V1.07422C7.52734 0.480469 8.00781 0 8.60156 0H18.9219C19.5195 0 20 0.480469 20 1.07422V3.86719C20 4.46484 19.5195 4.94531 18.9258 4.94531Z" fill="#2BC3F1"/>
<path d="M18.9258 20H16.1328C15.5391 20 15.0586 19.5195 15.0586 18.9258V16.1328C15.0586 15.5391 15.5391 15.0586 16.1328 15.0586H18.9258C19.5195 15.0586 20 15.5391 20 16.1328V18.9258C20 19.5195 19.5195 20 18.9258 20Z" fill="#4D68C4"/>
<path d="M1.07422 0H3.86719C4.46094 0 4.94141 0.480469 4.94141 1.07422V3.86719C4.94141 4.46094 4.46094 4.94141 3.86719 4.94141H1.07422C0.480469 4.94531 0 4.46484 0 3.87109V1.07422C0 0.480469 0.480469 0 1.07422 0Z" fill="#2BC3F1"/>
</svg>
