<svg width="20" height="18" viewBox="0 0 20 18" fill="none" xmlns="http://www.w3.org/2000/svg">
<path d="M6.02212 5.51134C4.91949 3.89303 5.35083 1.6962 6.98556 0.604629C8.6203 -0.486954 10.8394 -0.0599296 11.942 1.5584L19.3892 12.4886C20.4918 14.1069 20.0606 16.3037 18.4258 17.3953C16.791 18.487 14.572 18.0599 13.4693 16.4415L10.2406 11.7027C9.82553 11.1849 8.9806 11.2655 8.47327 11.7678C8.05256 12.1843 7.91483 13.2497 7.79557 14.1723C7.77808 14.3076 7.76099 14.4397 7.74346 14.5664C7.67875 15.1702 7.46813 15.7674 7.10128 16.306C5.90247 18.0654 3.48923 18.5293 1.71191 17.3425C-0.0653898 16.1557 -0.534984 13.7669 0.663825 12.0074C1.28556 11.0949 2.23395 10.5309 3.25086 10.3649L3.24944 10.3634C6.18765 9.94156 6.73241 6.65884 6.19468 5.7646L6.02212 5.51134Z" fill="#8142E3"/>
</svg>
