<svg width="20" height="20" viewBox="0 0 20 20" fill="none" xmlns="http://www.w3.org/2000/svg">
<path d="M19.9526 16.5222C19.9329 16.5072 19.9101 16.4969 19.8859 16.492C19.8617 16.4871 19.8366 16.4878 19.8127 16.494C18.7627 14.9439 17.4188 13.4773 16.1305 12.0529L15.9204 11.8156C15.9191 11.7544 15.8648 11.7147 15.8086 11.6899C15.7849 11.6668 15.7617 11.6433 15.7383 11.62C15.6962 11.536 15.5979 11.4802 15.5001 11.536C15.108 11.7321 14.7445 12.0252 14.394 12.3043C13.9326 12.6673 13.4702 13.0308 13.0359 13.4356C12.8584 13.5938 12.6945 13.7666 12.546 13.9524C12.4758 14.05 12.532 14.1339 12.6163 14.1757C12.3078 14.4829 11.9994 14.7907 11.6921 15.1113C11.6639 15.1417 11.6488 15.182 11.6499 15.2235C11.6499 15.2652 11.678 15.307 11.7056 15.3211L12.2522 15.7398V15.754C13.0219 16.5222 14.3804 17.5695 15.8226 18.7008C16.0322 18.8687 16.2563 19.0362 16.4665 19.2036C16.5642 19.3157 16.662 19.4414 16.7462 19.553C16.7884 19.6083 16.8867 19.6229 16.9423 19.5806C16.9704 19.6088 17.0126 19.6364 17.0407 19.6646C17.0661 19.6801 17.0947 19.6898 17.1243 19.6928C17.1463 19.6939 17.1681 19.6894 17.1878 19.6796C17.2075 19.6698 17.2243 19.6551 17.2367 19.637C17.252 19.6114 17.2615 19.5828 17.2643 19.5531C17.2788 19.5531 17.2783 19.5671 17.2923 19.5671C17.3338 19.5682 17.3741 19.5531 17.4047 19.5249L19.953 16.7454C20.0529 16.6486 19.9643 16.5225 19.9526 16.5222ZM13.5961 16.4105L12.3078 15.4326L12.182 15.3492C12.1539 15.3351 12.1258 15.3069 12.0978 15.2934L11.9999 15.2094C12.5497 14.6588 13.108 14.117 13.6663 13.5753C13.2601 13.9801 12.4478 15.1677 12.6158 15.5584C12.6177 15.5584 12.6313 15.5934 12.6719 15.6287C12.9806 15.8886 13.2884 16.1494 13.5961 16.4105ZM17.0126 19.0226L15.9484 18.2121C15.5268 17.7754 15.0877 17.3561 14.6321 16.9551C15.2063 17.388 15.6962 17.7651 15.7664 17.8349C16.3266 18.3237 16.298 18.2402 16.6766 18.5615L17.1384 18.8964C17.0772 18.9825 17.0126 19.0198 17.0126 19.0226ZM17.2923 19.2317L17.2643 19.2177C17.3064 19.19 17.3485 19.1619 17.3907 19.1201L17.2923 19.2317ZM0.490424 2.87698C0.518008 3.05846 0.560675 3.23995 0.588259 3.40789C0.756178 4.32951 0.92418 5.16765 1.2321 5.79616L1.35844 6.27075C1.4006 6.45232 1.47027 6.676 1.54052 6.7319C2.25453 7.36032 3.34672 8.29555 4.52265 9.19001C4.54865 9.21037 4.5807 9.22143 4.61369 9.22143C4.64669 9.22143 4.67873 9.21037 4.70474 9.19001C4.70474 9.19001 4.70473 9.20355 4.71874 9.20355C4.73109 9.21733 4.74628 9.22825 4.76326 9.23555C4.78024 9.24285 4.7986 9.24636 4.81707 9.24583C4.85838 9.2468 4.89845 9.23164 4.92882 9.20355C6.42718 7.54188 7.54703 6.17324 8.34529 5.02795C8.40146 4.97213 8.41554 4.88816 8.41554 4.81823C8.47121 4.76241 8.51329 4.69256 8.56946 4.65078C8.62513 4.59496 8.62513 4.49704 8.56946 4.45476L8.55546 4.44114C8.55546 4.41357 8.54137 4.37129 8.51329 4.35717C8.16329 4.02236 7.91162 3.78498 7.64528 3.53364C6.98089 2.91196 6.32739 2.27868 5.68508 1.63409C5.671 1.61997 5.657 1.60594 5.62892 1.60594C5.34908 1.50834 4.7749 1.41033 4.06081 1.28466C2.99671 1.1036 1.55419 0.852266 0.252254 0.460474C0.252254 0.460474 0.168002 0.460474 0.153919 0.474595L0.112335 0.516874C0.0415006 0.569848 0.0185003 0.56308 0 0.572188C0.0141669 0.656161 0.0141669 0.711976 0.0421673 0.809987C0.0421673 0.837643 0.0982514 1.0614 0.0982514 1.08906L0.490424 2.87698ZM6.48293 6.8711L6.45484 6.89926C6.45533 6.89195 6.45845 6.88507 6.46361 6.87989C6.46878 6.87471 6.47564 6.87159 6.48293 6.8711ZM5.46091 1.84332C5.54508 1.92729 5.89517 2.26268 5.97892 2.33253C5.61483 2.16459 4.70524 1.74581 4.28448 1.60602C4.70474 1.68999 5.27891 1.77397 5.46091 1.84332ZM0.658426 1.14538C0.868513 1.50834 1.03652 2.76535 1.20452 3.9942C1.10618 3.60299 1.03652 3.21237 0.952264 2.84882C0.826429 2.20678 0.70001 1.63409 0.532091 1.13126C0.634759 1.13126 0.658426 1.14897 0.658426 1.14538ZM0.420256 0.837643C0.420256 0.824107 0.420256 0.81007 0.406173 0.81007C0.476424 0.81007 0.518008 0.824107 0.574175 0.851764C0.574675 0.856527 0.453507 0.837643 0.420256 0.837643ZM19.7285 0.656161C19.7425 0.600847 19.4486 0.349512 19.5465 0.33489C19.757 0.321271 19.757 0 19.5465 0C19.2666 0.0141209 18.9728 0.0834719 18.7064 0.125667C18.2166 0.22326 17.7126 0.321271 17.2223 0.432399C16.1164 0.670198 15.0243 0.921617 13.9321 1.21531C13.5961 1.31282 13.2179 1.38268 12.8961 1.55012C12.7838 1.60594 12.7978 1.71757 12.8539 1.78742C12.8259 1.80154 12.8119 1.80154 12.7838 1.81558C12.6859 1.8297 12.6017 1.84373 12.5039 1.85735C12.4197 1.87139 12.3776 1.94124 12.3916 2.0253C12.3916 2.03884 12.4057 2.06699 12.4057 2.08053C11.8174 2.86286 11.1595 3.68697 10.4454 4.56689C9.74539 5.37688 9.00321 6.22906 8.26104 7.10898C5.89467 9.87433 3.22038 13.0168 0.266254 15.782C0.253007 15.7946 0.242458 15.8098 0.235249 15.8266C0.22804 15.8434 0.224322 15.8615 0.224322 15.8798C0.224322 15.8981 0.22804 15.9163 0.235249 15.9331C0.242458 15.9499 0.253007 15.965 0.266254 15.9776C0.280337 15.9913 0.294338 16.0053 0.308421 16.0053C0.266254 16.0476 0.22417 16.0757 0.182003 16.1169C0.153919 16.1451 0.139919 16.1727 0.139919 16.2009C0.118026 16.2213 0.0992668 16.2449 0.0842512 16.2708C0.0280837 16.3266 0.0280837 16.4242 0.0983348 16.4664C0.153919 16.5217 0.252254 16.5217 0.293838 16.4523C0.308421 16.4382 0.308421 16.4242 0.321921 16.4242C0.363148 16.3838 0.418496 16.3612 0.476132 16.3612C0.533768 16.3612 0.589116 16.3838 0.630342 16.4242C0.798345 16.6061 0.966347 16.7876 1.12035 16.941L0.770261 16.6479C0.714094 16.5921 0.616342 16.6061 0.574675 16.662C0.518008 16.7173 0.532091 16.8153 0.588259 16.8575L4.31256 19.9718C4.34065 20 4.36873 20 4.4109 20C4.45298 20 4.48107 19.9859 4.50865 19.9577L4.59282 19.8743C4.60698 19.8879 4.63448 19.8879 4.64857 19.8879C4.69065 19.8879 4.71874 19.8742 4.7469 19.8461C9.78748 14.7906 13.8484 10.9774 18.4969 7.56954C18.5385 7.54188 18.5525 7.48598 18.5525 7.44379C18.6087 7.44379 18.6509 7.40201 18.6784 7.34628C19.5329 4.73475 19.7009 2.41592 19.7565 1.27105C19.7565 1.22267 19.7706 1.24005 19.7706 1.21523C19.7846 1.18707 19.7846 1.17303 19.7846 1.17303C19.8227 0.99926 19.8026 0.817789 19.7285 0.656161ZM10.7117 4.76241C10.9353 4.51108 11.1595 4.24554 11.3837 4.00824C9.94148 5.90779 7.54753 8.82646 4.15856 12.3043C6.46893 9.7485 8.79305 7.10898 10.7117 4.76241ZM4.28456 19.5806C4.27106 19.5666 4.27106 19.5666 4.28456 19.5666V19.5806ZM6.37068 17.7792C6.48301 17.6534 6.59526 17.5419 6.72118 17.4161C6.72118 17.4161 6.72118 17.4298 6.73518 17.4298C6.54885 17.595 6.37401 17.7792 6.37068 17.7792ZM6.94535 17.2205C7.02819 17.1376 7.06202 17.0765 7.18302 16.9551C8.00945 16.1034 8.86338 15.2511 9.73139 14.3853L9.74547 14.3713C9.95556 14.2038 10.2073 14.0223 10.4315 13.8544C9.25524 14.9616 8.0931 16.0837 6.94535 17.2205ZM12.3777 3.24003C11.9158 3.84079 11.3977 4.63674 10.9635 5.26525C9.59156 7.24827 5.18066 12.0947 5.08291 12.1786C3.74219 13.4626 2.39789 14.7429 1.05002 16.0193L0.966264 16.1033C0.896013 16.0193 0.896013 15.8936 0.980264 15.8237C7.21035 9.97176 10.9914 5.09772 12.5179 2.96087C12.4758 3.05838 12.4478 3.14194 12.3777 3.24003ZM14.7997 6.10339C14.24 5.78162 13.9743 5.27878 14.1277 4.79057L14.1699 4.62262C14.1876 4.57356 14.2111 4.52682 14.24 4.48342C14.394 4.23192 14.6182 4.02236 14.8704 3.89661C14.884 3.89661 14.898 3.89661 14.9121 3.88257C14.898 3.85441 14.898 3.81264 14.898 3.77094C14.9121 3.68697 14.9682 3.63115 15.066 3.63115C15.234 3.63115 15.7525 3.78498 15.9485 3.95242C16.0042 3.9942 16.0604 4.05002 16.1166 4.10583C16.1867 4.18972 16.2986 4.32951 16.3542 4.44114C16.3823 4.45526 16.4104 4.59497 16.4526 4.6649C16.4806 4.77653 16.5082 4.9022 16.4947 5.01383C16.4806 5.02795 16.4947 5.11134 16.4806 5.11134C16.456 5.29435 16.3941 5.47032 16.2986 5.62821C16.273 5.65386 16.3039 5.63815 16.2565 5.68403C16.1862 5.79616 16.0885 5.89375 15.9906 5.9636C15.6682 6.18686 15.3041 6.25672 14.9401 6.15912C14.8481 6.1196 14.8008 6.10339 14.7997 6.10339ZM18.4408 7.27643C18.4408 7.29046 18.4268 7.31812 18.4408 7.33216C18.4127 7.33216 18.3987 7.34628 18.3706 7.36032C17.2644 8.16988 16.1862 9.02207 15.1081 9.88837C16.0322 9.06384 16.9564 8.22612 17.9228 7.40209C18.2026 7.15068 18.3987 6.8294 18.4544 6.46636L18.5948 5.6283V5.60056C18.6649 5.43261 18.9308 5.50254 18.8886 5.68411C18.8851 5.68311 18.7444 6.34838 18.4408 7.27643Z" fill="#6965DB"/>
</svg>
