<svg width="20" height="20" viewBox="0 0 20 20" fill="none" xmlns="http://www.w3.org/2000/svg">
<path fill-rule="evenodd" clip-rule="evenodd" d="M4.55433 19.9992C4.04009 19.9992 3.62544 19.8231 3.35474 19.4906C3.0768 19.1488 3.00437 18.6709 3.15557 18.1811L3.76396 16.2126C3.7879 16.1353 3.79218 16.0537 3.77646 15.9746C3.76073 15.8954 3.72544 15.8208 3.67343 15.7568C3.62076 15.6924 3.55303 15.6403 3.47547 15.6045C3.39791 15.5686 3.31262 15.5501 3.22618 15.5502H1.47615C0.961907 15.5502 0.547258 15.3742 0.276559 15.0417C-0.00138323 14.699 -0.0738111 14.2219 0.0773821 13.7321L2.16874 7L2.3996 6.2602C2.71014 5.2568 3.84091 4.44048 4.9219 4.44048H7.01597C7.26585 4.44048 7.48585 4.28741 7.55465 4.06463L8.24634 1.82568C8.55687 0.822279 9.68766 0.00680272 10.7695 0.00680272L15.2465 0H18.5239C19.0381 0 19.4536 0.17517 19.7234 0.507653C20.0014 0.84949 20.0738 1.32738 19.9226 1.81718L18.9856 4.84949C18.675 5.85119 17.5434 6.66667 16.4624 6.66667L11.9755 6.67517H9.88231C9.76159 6.67482 9.644 6.71115 9.54707 6.77874C9.45015 6.84633 9.3791 6.94154 9.34453 7.05017L7.59902 12.6658C7.57492 12.7433 7.57057 12.825 7.58629 12.9043C7.60202 12.9836 7.63739 13.0583 7.68955 13.1224C7.79638 13.2526 7.96116 13.3291 8.1377 13.3291L11.1027 13.324H14.371C14.8853 13.324 15.2999 13.4991 15.5706 13.8325C15.8486 14.1743 15.921 14.6522 15.7698 15.142L14.8318 18.1735C14.5222 19.176 13.3905 19.9915 12.3095 19.9915L7.82173 20H4.55342L4.55433 19.9992Z" fill="#F0FF41"/>
</svg>
