<svg width="140" height="20" viewBox="0 0 140 20" fill="none" xmlns="http://www.w3.org/2000/svg"><path d="M4 16H0V20H4V16Z" fill="#666"/><path d="M28 16H24V20H28V16Z" fill="#666"/><path d="M52 16H48V20H52V16Z" fill="#666"/><path d="M76 16H72V20H76V16Z" fill="#666"/><path d="M124 16H120V20H124V16Z" fill="#666"/><path d="M32 16H28V20H32V16Z" fill="#666"/><path d="M128 16H124V20H128V16Z" fill="#666"/><path d="M104 16H100V20H104V16Z" fill="#666"/><path d="M12 16H8V20H12V16Z" fill="#666"/><path d="M36 16H32V20H36V16Z" fill="#666"/><path d="M132 16H128V20H132V16Z" fill="#666"/><path d="M108 16H104V20H108V16Z" fill="#666"/><path d="M40 16H36V20H40V16Z" fill="#666"/><path d="M136 16H132V20H136V16Z" fill="#666"/><path d="M112 16H108V20H112V16Z" fill="#666"/><path d="M20 16H16V20H20V16Z" fill="#666"/><path d="M44 16H40V20H44V16Z" fill="#666"/><path d="M68 16H64V20H68V16Z" fill="#666"/><path d="M92 16H88V20H92V16Z" fill="#666"/><path d="M140 16H136V20H140V16Z" fill="#666"/><path d="M4 12H0V16H4V12Z" fill="#666"/><path d="M28 12H24V16H28V12Z" fill="#666"/><path d="M52 12H48V16H52V12Z" fill="#666"/><path d="M76 12H72V16H76V12Z" fill="#666"/><path d="M124 12H120V16H124V12Z" fill="#666"/><path d="M100 12H96V16H100V12Z" fill="#666"/><path d="M80 12H76V16H80V12Z" fill="#666"/><path d="M12 12H8V16H12V12Z" fill="#666"/><path d="M84 12H80V16H84V12Z" fill="#666"/><path d="M88 12H84V16H88V12Z" fill="#666"/><path d="M20 12H16V16H20V12Z" fill="#666"/><path d="M44 12H40V16H44V12Z" fill="#666"/><path d="M68 12H64V16H68V12Z" fill="#666"/><path d="M92 12H88V16H92V12Z" fill="#666"/><path d="M116 12H112V16H116V12Z" fill="#666"/><path d="M4 8H0V12H4V8Z" fill="#666"/><path d="M28 8H24V12H28V8Z" fill="#666"/><path d="M52 8H48V12H52V8Z" fill="#666"/><path d="M76 8H72V12H76V8Z" fill="#666"/><path d="M124 8H120V12H124V8Z" fill="#666"/><path d="M100 8H96V12H100V8Z" fill="#666"/><path d="M56 8H52V12H56V8Z" fill="#666"/><path d="M128 8H124V12H128V8Z" fill="#666"/><path d="M12 8H8V12H12V8Z" fill="#666"/><path d="M60 8H56V12H60V8Z" fill="#666"/><path d="M132 8H128V12H132V8Z" fill="#666"/><path d="M64 8H60V12H64V8Z" fill="#666"/><path d="M136 8H132V12H136V8Z" fill="#666"/><path d="M20 8H16V12H20V8Z" fill="#666"/><path d="M44 8H40V12H44V8Z" fill="#666"/><path d="M92 8H88V12H92V8Z" fill="#666"/><path d="M140 8H136V12H140V8Z" fill="#666"/><path d="M116 8H112V12H116V8Z" fill="#666"/><path d="M4 4H0V8H4V4Z" fill="#666"/><path d="M28 4H24V8H28V4Z" fill="#666"/><path d="M52 4H48V8H52V4Z" fill="#666"/><path d="M76 4H72V8H76V4Z" fill="#666"/><path d="M100 4H96V8H100V4Z" fill="#666"/><path d="M12 4H8V8H12V4Z" fill="#666"/><path d="M20 4H16V8H20V4Z" fill="#666"/><path d="M44 4H40V8H44V4Z" fill="#666"/><path d="M68 4H64V8H68V4Z" fill="#666"/><path d="M92 4H88V8H92V4Z" fill="#666"/><path d="M140 4H136V8H140V4Z" fill="#666"/><path d="M116 4H112V8H116V4Z" fill="#666"/><path d="M4 0H0V4H4V0Z" fill="#666"/><path d="M28 0H24V4H28V0Z" fill="#666"/><path d="M52 0H48V4H52V0Z" fill="#666"/><path d="M76 0H72V4H76V0Z" fill="#666"/><path d="M124 0H120V4H124V0Z" fill="#666"/><path d="M8 0H4V4H8V0Z" fill="#666"/><path d="M32 0H28V4H32V0Z" fill="#666"/><path d="M56 0H52V4H56V0Z" fill="#666"/><path d="M80 0H76V4H80V0Z" fill="#666"/><path d="M128 0H124V4H128V0Z" fill="#666"/><path d="M104 0H100V4H104V0Z" fill="#666"/><path d="M12 0H8V4H12V0Z" fill="#666"/><path d="M36 0H32V4H36V0Z" fill="#666"/><path d="M60 0H56V4H60V0Z" fill="#666"/><path d="M84 0H80V4H84V0Z" fill="#666"/><path d="M132 0H128V4H132V0Z" fill="#666"/><path d="M108 0H104V4H108V0Z" fill="#666"/><path d="M16 0H12V4H16V0Z" fill="#666"/><path d="M40 0H36V4H40V0Z" fill="#666"/><path d="M64 0H60V4H64V0Z" fill="#666"/><path d="M88 0H84V4H88V0Z" fill="#666"/><path d="M136 0H132V4H136V0Z" fill="#666"/><path d="M112 0H108V4H112V0Z" fill="#666"/><path d="M20 0H16V4H20V0Z" fill="#666"/><path d="M44 0H40V4H44V0Z" fill="#666"/><path d="M68 0H64V4H68V0Z" fill="#666"/><path d="M92 0H88V4H92V0Z" fill="#666"/><path d="M140 0H136V4H140V0Z" fill="#666"/></svg>
