<svg width="44" height="20" viewBox="0 0 44 20" fill="none" xmlns="http://www.w3.org/2000/svg">
<path d="M4.0002 16H0V20H4.0002V16Z" fill="#666666"/>
<path d="M28.0012 16H24.001V20H28.0012V16Z" fill="#666666"/>
<path d="M32.0021 16H28.002V20H32.0021V16Z" fill="#666666"/>
<path d="M12.0002 16H8V20H12.0002V16Z" fill="#666666"/>
<path d="M36.0002 16H32V20H36.0002V16Z" fill="#666666"/>
<path d="M40.0002 16H36V20H40.0002V16Z" fill="#666666"/>
<path d="M20.0012 16H16.001V20H20.0012V16Z" fill="#666666"/>
<path d="M44.0002 16H40V20H44.0002V16Z" fill="#666666"/>
<path d="M4.0002 12H0V16H4.0002V12Z" fill="#666666"/>
<path d="M28.0012 12H24.001V16H28.0012V12Z" fill="#666666"/>
<path d="M12.0002 12H8V16H12.0002V12Z" fill="#666666"/>
<path d="M20.0012 12H16.001V16H20.0012V12Z" fill="#666666"/>
<path d="M4.0002 8H0V12H4.0002V8Z" fill="#666666"/>
<path d="M28.0012 8H24.001V12H28.0012V8Z" fill="#666666"/>
<path d="M32.0021 8H28.002V12H32.0021V8Z" fill="#666666"/>
<path d="M12.0002 8H8V12H12.0002V8Z" fill="#666666"/>
<path d="M36.0002 8H32V12H36.0002V8Z" fill="#666666"/>
<path d="M40.0002 8H36V12H40.0002V8Z" fill="#666666"/>
<path d="M20.0012 8H16.001V12H20.0012V8Z" fill="#666666"/>
<path d="M44.0002 8H40V12H44.0002V8Z" fill="#666666"/>
<path d="M4.0002 4H0V8H4.0002V4Z" fill="#666666"/>
<path d="M12.0002 4H8V8H12.0002V4Z" fill="#666666"/>
<path d="M20.0012 4H16.001V8H20.0012V4Z" fill="#666666"/>
<path d="M44.0002 4H40V8H44.0002V4Z" fill="#666666"/>
<path d="M4.0002 0H0V4H4.0002V0Z" fill="#666666"/>
<path d="M28.0012 0H24.001V4H28.0012V0Z" fill="#666666"/>
<path d="M8.0002 0H4V4H8.0002V0Z" fill="#666666"/>
<path d="M32.0021 0H28.002V4H32.0021V0Z" fill="#666666"/>
<path d="M12.0002 0H8V4H12.0002V0Z" fill="#666666"/>
<path d="M36.0002 0H32V4H36.0002V0Z" fill="#666666"/>
<path d="M16.0002 0H12V4H16.0002V0Z" fill="#666666"/>
<path d="M40.0002 0H36V4H40.0002V0Z" fill="#666666"/>
<path d="M20.0012 0H16.001V4H20.0012V0Z" fill="#666666"/>
<path d="M44.0002 0H40V4H44.0002V0Z" fill="#666666"/>
</svg>
