<svg width="20" height="44" viewBox="0 0 20 44" fill="none" xmlns="http://www.w3.org/2000/svg"><path d="M4 16H0V20H4V16Z" fill="#666"/><path d="M4 40H0V44H4V40Z" fill="#666"/><path d="M8 40H4V44H8V40Z" fill="#666"/><path d="M12 16H8V20H12V16Z" fill="#666"/><path d="M12 40H8V44H12V40Z" fill="#666"/><path d="M16 40H12V44H16V40Z" fill="#666"/><path d="M20 16H16V20H20V16Z" fill="#666"/><path d="M20 40H16V44H20V40Z" fill="#666"/><path d="M4 12H0V16H4V12Z" fill="#666"/><path d="M4 36H0V40H4V36Z" fill="#666"/><path d="M12 12H8V16H12V12Z" fill="#666"/><path d="M20 12H16V16H20V12Z" fill="#666"/><path d="M4 8H0V12H4V8Z" fill="#666"/><path d="M4 32H0V36H4V32Z" fill="#666"/><path d="M8 32H4V36H8V32Z" fill="#666"/><path d="M12 8H8V12H12V8Z" fill="#666"/><path d="M12 32H8V36H12V32Z" fill="#666"/><path d="M16 32H12V36H16V32Z" fill="#666"/><path d="M20 8H16V12H20V8Z" fill="#666"/><path d="M20 32H16V36H20V32Z" fill="#666"/><path d="M4 4H0V8H4V4Z" fill="#666"/><path d="M12 4H8V8H12V4Z" fill="#666"/><path d="M20 4H16V8H20V4Z" fill="#666"/><path d="M20 28H16V32H20V28Z" fill="#666"/><path d="M4 0H0V4H4V0Z" fill="#666"/><path d="M4 24H0V28H4V24Z" fill="#666"/><path d="M8 0H4V4H8V0Z" fill="#666"/><path d="M8 24H4V28H8V24Z" fill="#666"/><path d="M12 0H8V4H12V0Z" fill="#666"/><path d="M12 24H8V28H12V24Z" fill="#666"/><path d="M16 0H12V4H16V0Z" fill="#666"/><path d="M16 24H12V28H16V24Z" fill="#666"/><path d="M20 0H16V4H20V0Z" fill="#666"/><path d="M20 24H16V28H20V24Z" fill="#666"/></svg>
