<svg xmlns="http://www.w3.org/2000/svg" style="display:none">
  <symbol id="i-bot" viewBox="0 0 20 20"><path d="M20 0V20H0V0H20ZM2 18H18V2H2V18Z" fill="currentColor"/>
<rect x="5" y="5" width="4" height="4" fill="currentColor"/>
<rect x="11" y="5" width="4" height="4" fill="currentColor"/>
<rect x="5" y="13" width="10" height="2" fill="currentColor"/></symbol>
  <symbol id="i-persona" viewBox="0 0 20 20"><path d="M18 10C18 5.58172 14.4183 2 10 2C5.58172 2 2 5.58172 2 10C2 14.4183 5.58172 18 10 18V20C4.47715 20 0 15.5228 0 10C0 4.47715 4.47715 0 10 0C15.5228 0 20 4.47715 20 10C20 15.5228 15.5228 20 10 20V18C14.4183 18 18 14.4183 18 10Z" fill="currentColor"/>
<path d="M13.2178 12.377C13.5619 11.9451 14.1911 11.8737 14.6231 12.2178C15.0549 12.5619 15.1263 13.1911 14.7822 13.6231C13.6372 15.0601 11.931 16 10 16C8.06904 16 6.36281 15.0601 5.21778 13.6231C4.87374 13.1911 4.94507 12.5619 5.37696 12.2178C5.80889 11.8737 6.4381 11.9451 6.78223 12.377C7.59171 13.3928 8.74518 14 10 14C11.2548 14 12.4083 13.3928 13.2178 12.377Z" fill="currentColor"/>
<circle cx="7" cy="7" r="2" fill="currentColor"/>
<circle cx="13" cy="7" r="2" fill="currentColor"/></symbol>
  <symbol id="i-apps" viewBox="0 0 20 20"><path d="M8 0V8H0V0H8ZM2 6H6V2H2V6Z" fill="currentColor"/>
<path d="M8 12V20H0V12H8ZM2 18H6V14H2V18Z" fill="currentColor"/>
<path d="M20 0V8H12V0H20ZM14 6H18V2H14V6Z" fill="currentColor"/>
<path d="M20 12V20H12V12H20ZM14 18H18V14H14V18Z" fill="currentColor"/></symbol>
  <symbol id="i-library" viewBox="0 0 26 18"><path fill-rule="evenodd" clip-rule="evenodd" d="M26 18H0V0H26V18ZM14 16.0541H24V1.94595H14V16.0541ZM2 16.0541H12V1.94595H2V16.0541Z" fill="currentColor"/>
<rect x="5" y="3.89209" width="4" height="1.94595" fill="currentColor"/>
<rect x="17" y="3.89209" width="4" height="1.94595" fill="currentColor"/>
<rect x="5" y="7.78369" width="4" height="1.94595" fill="currentColor"/>
<rect x="17" y="7.78369" width="4" height="1.94595" fill="currentColor"/>
<rect x="5" y="11.6758" width="4" height="1.94595" fill="currentColor"/>
<rect x="17" y="11.6758" width="4" height="1.94595" fill="currentColor"/></symbol>
  <symbol id="i-core" viewBox="0 0 20 20"><path d="M18 10C18 5.58172 14.4183 2 10 2C5.58172 2 2 5.58172 2 10C2 14.4183 5.58172 18 10 18V20C4.47715 20 0 15.5228 0 10C0 4.47715 4.47715 0 10 0C15.5228 0 20 4.47715 20 10C20 15.5228 15.5228 20 10 20V18C14.4183 18 18 14.4183 18 10Z" fill="currentColor"/>
<path d="M14 10C14 7.79086 12.2091 6 10 6C7.79086 6 6 7.79086 6 10C6 12.2091 7.79086 14 10 14V16C6.68629 16 4 13.3137 4 10C4 6.68629 6.68629 4 10 4C13.3137 4 16 6.68629 16 10C16 13.3137 13.3137 16 10 16V14C12.2091 14 14 12.2091 14 10Z" fill="currentColor"/>
<path d="M12 10C12 11.1046 11.1046 12 10 12C8.89543 12 8 11.1046 8 10C8 8.89543 8.89543 8 10 8C11.1046 8 12 8.89543 12 10Z" fill="currentColor"/></symbol>
  <symbol id="i-settings" viewBox="0 0 21 21"><path fill-rule="evenodd" clip-rule="evenodd" d="M10.5016 6.97168C8.5526 6.97168 6.97266 8.55162 6.97266 10.5006C6.97266 12.4495 8.5526 14.0295 10.5016 14.0295C12.4505 14.0295 14.0305 12.4495 14.0305 10.5006C14.0305 8.55162 12.4505 6.97168 10.5016 6.97168ZM8.98917 10.5006C8.98917 9.66575 9.66672 8.9882 10.5016 8.9882C11.3364 8.9882 12.0139 9.66575 12.0139 10.5006C12.0139 11.3354 11.3364 12.013 10.5016 12.013C9.66672 12.013 8.98917 11.3354 8.98917 10.5006Z" fill="currentColor"/>
<path fill-rule="evenodd" clip-rule="evenodd" d="M13.5752 3.07519L10.5 0L7.42481 3.07519H3.07519V7.42481L0 10.5L3.07519 13.5752V17.9248H7.42481L10.5 21L13.5752 17.9248H17.9248V13.5752L21 10.5L17.9248 7.42481V3.07519H13.5752ZM8.25965 5.0917L10.5 2.85135L12.7403 5.0917H15.9083V8.25965L18.1486 10.5L15.9083 12.7403V15.9083H12.7403L10.5 18.1486L8.25965 15.9083H5.0917V12.7403L2.85135 10.5L5.0917 8.25965V5.0917H8.25965Z" fill="currentColor"/></symbol>
  <symbol id="i-arrow-l" viewBox="0 0 10 18"><path d="M2.87749 9L10 1.51248L8.56125 3.74224e-07L5.60272e-07 9L8.56125 18L10 16.4875L2.87749 9Z" fill="currentColor"/></symbol>
  <symbol id="i-arrow-up" viewBox="0 0 17 20"><path d="M7.48978 20L7.48978 3.75037L1.42845 9.62869L0 8.24336L8.5 0L17 8.24336L15.5715 9.62869L9.51022 3.75037L9.51022 20H7.48978Z" fill="currentColor"/></symbol>
  <symbol id="i-plus" viewBox="0 0 20 20"><path d="M9 11V20H11V11H20V9H11V0H9V9H0V11H9Z" fill="currentColor"/></symbol>
  <symbol id="i-delete" viewBox="0 0 16 18"><path d="M1 18V3H0V1H5V0H11V1H16V3H15V18H1ZM3 16H13V3H3V16ZM5 14H7V5H5V14ZM9 14H11V5H9V14Z" fill="currentColor"/></symbol>
  <symbol id="i-hamburger" viewBox="0 0 20 16"><rect width="20" height="2" fill="currentColor"/>
<rect y="7" width="20" height="2" fill="currentColor"/>
<rect y="14" width="20" height="2" fill="currentColor"/></symbol>
  <symbol id="i-image" viewBox="0 0 20 20"><path d="M3.33333 15.5556H16.6667L12.5 10L9.16667 14.4444L6.66667 11.1111L3.33333 15.5556ZM0 20V0H20V20H0ZM2.22222 17.7778H17.7778V2.22222H2.22222V17.7778ZM7.29167 7.29167C7.61574 6.96759 7.77778 6.57407 7.77778 6.11111C7.77778 5.64815 7.61574 5.25463 7.29167 4.93056C6.96759 4.60648 6.57407 4.44444 6.11111 4.44444C5.64815 4.44444 5.25463 4.60648 4.93056 4.93056C4.60648 5.25463 4.44444 5.64815 4.44444 6.11111C4.44444 6.57407 4.60648 6.96759 4.93056 7.29167C5.25463 7.61574 5.64815 7.77778 6.11111 7.77778C6.57407 7.77778 6.96759 7.61574 7.29167 7.29167Z" fill="currentColor"/></symbol>
  <symbol id="i-reload" viewBox="0 0 21 21"><path d="M18.9487 10.5C18.9487 5.8611 15.2749 2.1 10.7436 2.1V0C16.4082 0 21 4.70085 21 10.5C21 16.2991 16.4082 21 10.7436 21C5.07897 21 0.487179 16.2991 0.487179 10.5C0.487179 7.72275 1.54051 5.1975 3.25949 3.3201H0V1.22115H7.17949V8.57115H5.1282V4.37535C3.53333 5.90835 2.53846 8.08605 2.53846 10.5C2.53846 15.1389 6.21231 18.9 10.7436 18.9C15.2749 18.9 18.9487 15.1389 18.9487 10.5Z" fill="currentColor"/></symbol>
  <symbol id="i-copy" viewBox="0 0 16 20"><path fill-rule="evenodd" clip-rule="evenodd" d="M11.4143 0H4V16.0007H16.0005V4.58619L11.4143 0ZM6.00008 14.0006V2.00008H10.5863L14.0004 5.41423V14.0006H6.00008Z" fill="currentColor"/>
<path d="M2.00008 5V18.0005H11.0005V20.0006H0V5H2.00008Z" fill="currentColor"/></symbol>
  <symbol id="i-download" viewBox="0 0 18 20"><path d="M3.65049 9.64265L8.00249 13.997V14.008H8.01349L9.00249 14.9976L9.99149 14.008H10.0025V13.997L14.3545 9.64265L12.9395 8.22788L10.0025 11.1675L10.0025 0.000405312H8.00249L8.00249 11.1675L5.06449 8.22788L3.65049 9.64265Z" fill="currentColor"/>
<path d="M2 17.9988V12.9961H0V19.9999H18V12.9961H16V17.9988H2Z" fill="currentColor"/></symbol>
  <symbol id="i-arrow-r" viewBox="0 0 10 18"><path d="M7.12 9L0 1.51L1.44 0L10 9L1.44 18L0 16.49L7.12 9Z" fill="currentColor"/></symbol>
  <symbol id="i-chev" viewBox="0 0 10 10"><path d="M3 1l4 4-4 4" fill="none" stroke="currentColor" stroke-width="1.5"/></symbol>
  <symbol id="i-shuffle" viewBox="0 0 10 15"><rect width="3" height="3" fill="currentColor"/>
<rect x="7" width="3" height="3" fill="currentColor"/>
<rect y="6" width="3" height="3" fill="currentColor"/>
<rect y="12" width="3" height="3" fill="currentColor"/>
<rect x="7" y="6" width="3" height="3" fill="currentColor"/>
<rect x="7" y="12" width="3" height="3" fill="currentColor"/></symbol>
  <symbol id="i-chev-up" viewBox="0 0 10 10"><path d="M1 7l4-4 4 4" fill="none" stroke="currentColor" stroke-width="1.5"/></symbol>
  <symbol id="i-chev-down" viewBox="0 0 10 10"><path d="M1 3l4 4 4-4" fill="none" stroke="currentColor" stroke-width="1.5"/></symbol>
  <symbol id="i-gif" viewBox="0 0 26 10"><path d="M8 7.9999L8 10L10 10L10 7.9999L8 7.9999Z" fill="currentColor"/>
<path d="M18.0011 8H16.001V10H18.0011V8Z" fill="currentColor"/>
<path d="M14.0001 6H12V8H14.0001V6Z" fill="currentColor"/>
<path d="M8 3.9999L8 6L10 6L10 3.9999L8 3.9999Z" fill="currentColor"/>
<path d="M14.0001 8H12V10H14.0001V8Z" fill="currentColor"/>
<path d="M14.0001 4H12V6H14.0001V4Z" fill="currentColor"/>
<path d="M8 -9.77516e-05L8 2L10 2L10 -9.7839e-05L8 -9.77516e-05Z" fill="currentColor"/>
<path d="M14.0001 2H12V4H14.0001V2Z" fill="currentColor"/>
<path d="M14.0001 0H12V2H14.0001V0Z" fill="currentColor"/>
<path d="M6 7.9999L6 10L8 10L8 7.9999L6 7.9999Z" fill="currentColor"/>
<path d="M18.0011 6H16.001V8H18.0011V6Z" fill="currentColor"/>
<path d="M8 5.9999L8 8L10 8L10 5.9999L8 5.9999Z" fill="currentColor"/>
<path d="M6 -9.77516e-05L6 2L8 2L8 -9.7839e-05L6 -9.77516e-05Z" fill="currentColor"/>
<path d="M4 7.9999L4 10L6 10L6 7.9999L4 7.9999Z" fill="currentColor"/>
<path d="M18.0011 4H16.001V6H18.0011V4Z" fill="currentColor"/>
<path d="M20.0011 4H18.001V6H20.0011V4Z" fill="currentColor"/>
<path d="M6 3.9999L6 6L8 6L8 3.9999L6 3.9999Z" fill="currentColor"/>
<path d="M22.0001 4H20V6H22.0001V4Z" fill="currentColor"/>
<path d="M24.0001 4H22V6H24.0001V4Z" fill="currentColor"/>
<path d="M4 -9.77516e-05L4 2L6 2L6 -9.7839e-05L4 -9.77516e-05Z" fill="currentColor"/>
<path d="M26.0001 4H24V6H26.0001V4Z" fill="currentColor"/>
<path d="M2 7.9999L2 10L4 10L4 7.9999L2 7.9999Z" fill="currentColor"/>
<path d="M2 -9.77516e-05L2 2L4 2L4 -9.7839e-05L2 -9.77516e-05Z" fill="currentColor"/>
<path d="M18.0001 2H16V4H18.0001V2Z" fill="currentColor"/>
<path d="M-8.7427e-08 7.9999L0 10L2 10L2 7.9999L-8.7427e-08 7.9999Z" fill="currentColor"/>
<path d="M18.0011 0H16.001V2H18.0011V0Z" fill="currentColor"/>
<path d="M-8.7427e-08 5.9999L0 8L2 8L2 5.9999L-8.7427e-08 5.9999Z" fill="currentColor"/>
<path d="M20.0011 0H18.001V2H20.0011V0Z" fill="currentColor"/>
<path d="M-8.7427e-08 3.9999L0 6L2 6L2 3.9999L-8.7427e-08 3.9999Z" fill="currentColor"/>
<path d="M22.0001 0H20V2H22.0001V0Z" fill="currentColor"/>
<path d="M-8.7427e-08 1.9999L0 4L2 4L2 1.9999L-8.7427e-08 1.9999Z" fill="currentColor"/>
<path d="M24.0001 0H22V2H24.0001V0Z" fill="currentColor"/>
<path d="M-8.7427e-08 -9.77516e-05L0 2L2 2L2 -9.7839e-05L-8.7427e-08 -9.77516e-05Z" fill="currentColor"/>
<path d="M26.0001 0H24V2H26.0001V0Z" fill="currentColor"/></symbol>
  <symbol id="i-mpg" viewBox="0 0 34 10"><path d="M8 7.9999L8 10L10 10L10 7.9999L8 7.9999Z" fill="currentColor"/>
<path d="M26.0011 8H24.001V10H26.0011V8Z" fill="currentColor"/>
<path d="M14.0001 6H12V8H14.0001V6Z" fill="currentColor"/>
<path d="M8 3.9999L8 6L10 6L10 3.9999L8 3.9999Z" fill="currentColor"/>
<path d="M14.0001 8H12V10H14.0001V8Z" fill="currentColor"/>
<path d="M14.0001 4H12V6H14.0001V4Z" fill="currentColor"/>
<path d="M8 -9.77516e-05L8 2L10 2L10 -9.7839e-05L8 -9.77516e-05Z" fill="currentColor"/>
<path d="M14.0001 2H12V4H14.0001V2Z" fill="currentColor"/>
<path d="M14.0001 0H12V2H14.0001V0Z" fill="currentColor"/>
<path d="M16.0001 0H14V2H16.0001V0Z" fill="currentColor"/>
<path d="M16.0001 4H14V6H16.0001V4Z" fill="currentColor"/>
<path d="M20.0001 0H18V2H20.0001V0Z" fill="currentColor"/>
<path d="M20.0001 4H18V6H20.0001V4Z" fill="currentColor"/>
<path d="M22.0001 0H20V2H22.0001V0Z" fill="currentColor"/>
<path d="M22.0001 2H20V4H22.0001V2Z" fill="currentColor"/>
<path d="M22.0001 4H20V6H22.0001V4Z" fill="currentColor"/>
<path d="M18.0001 0H16V2H18.0001V0Z" fill="currentColor"/>
<path d="M18.0001 4H16V6H18.0001V4Z" fill="currentColor"/>
<path d="M26.0011 6H24.001V8H26.0011V6Z" fill="currentColor"/>
<path d="M8 5.9999L8 8L10 8L10 5.9999L8 5.9999Z" fill="currentColor"/>
<path d="M6 -9.77516e-05L6 2L8 2L8 -9.7839e-05L6 -9.77516e-05Z" fill="currentColor"/>
<path d="M4 7.9999L4 10L6 10L6 7.9999L4 7.9999Z" fill="currentColor"/>
<path d="M26.0011 4H24.001V6H26.0011V4Z" fill="currentColor"/>
<path d="M28.0001 8H26V10H28.0001V8Z" fill="currentColor"/>
<path d="M4 3.9999L4 6L6 6L6 3.9999L4 3.9999Z" fill="currentColor"/>
<path d="M32.0001 8H30V10H32.0001V8Z" fill="currentColor"/>
<path d="M32.0001 4H30V6H32.0001V4Z" fill="currentColor"/>
<path d="M4 -9.77516e-05L4 2L6 2L6 -9.7839e-05L4 -9.77516e-05Z" fill="currentColor"/>
<path d="M34.0001 4H32V6H34.0001V4Z" fill="currentColor"/>
<path d="M8 1.9999L8 4L10 4L10 1.9999L8 1.9999Z" fill="currentColor"/>
<path d="M2 -9.77516e-05L2 2L4 2L4 -9.7839e-05L2 -9.77516e-05Z" fill="currentColor"/>
<path d="M26.0001 2H24V4H26.0001V2Z" fill="currentColor"/>
<path d="M-8.7427e-08 7.9999L0 10L2 10L2 7.9999L-8.7427e-08 7.9999Z" fill="currentColor"/>
<path d="M26.0011 0H24.001V2H26.0011V0Z" fill="currentColor"/>
<path d="M-8.7427e-08 5.9999L0 8L2 8L2 5.9999L-8.7427e-08 5.9999Z" fill="currentColor"/>
<path d="M28.0011 0H26.001V2H28.0011V0Z" fill="currentColor"/>
<path d="M-8.7427e-08 3.9999L0 6L2 6L2 3.9999L-8.7427e-08 3.9999Z" fill="currentColor"/>
<path d="M30.0001 0H28V2H30.0001V0Z" fill="currentColor"/>
<path d="M-8.7427e-08 1.9999L0 4L2 4L2 1.9999L-8.7427e-08 1.9999Z" fill="currentColor"/>
<path d="M32.0001 0H30V2H32.0001V0Z" fill="currentColor"/>
<path d="M-8.7427e-08 -9.77516e-05L0 2L2 2L2 -9.7839e-05L-8.7427e-08 -9.77516e-05Z" fill="currentColor"/>
<path d="M34.0001 0H32V2H34.0001V0Z" fill="currentColor"/>
<path d="M14.0001 6H12V8H14.0001V6Z" fill="currentColor"/>
<path d="M14.0001 8H12V10H14.0001V8Z" fill="currentColor"/>
<path d="M14.0001 4H12V6H14.0001V4Z" fill="currentColor"/>
<path d="M4 7.9999L4 10L6 10L6 7.9999L4 7.9999Z" fill="currentColor"/>
<path d="M34.0001 6H32V8H34.0001V6Z" fill="currentColor"/>
<path d="M4 1.9999L4 4L6 4L6 1.9999L4 1.9999Z" fill="currentColor"/>
<path d="M34.0001 8H32V10H34.0001V8Z" fill="currentColor"/>
<path d="M30.0001 8H28V10H30.0001V8Z" fill="currentColor"/>
<path d="M34.0001 4H32V6H34.0001V4Z" fill="currentColor"/>
<path d="M4 5.9999L4 8L6 8L6 5.9999L4 5.9999Z" fill="currentColor"/></symbol>
  <symbol id="i-typer" viewBox="0 0 34 10"><path d="M26.0011 8H24.001V10H26.0011V8Z" fill="currentColor"/>
<path d="M18.0001 6H16V8H18.0001V6Z" fill="currentColor"/>
<path d="M18.0001 8H16V10H18.0001V8Z" fill="currentColor"/>
<path d="M14.0001 4H12V6H14.0001V4Z" fill="currentColor"/>
<path d="M8 -9.77516e-05L8 2L10 2L10 -9.7839e-05L8 -9.77516e-05Z" fill="currentColor"/>
<path d="M14.0001 2H12V4H14.0001V2Z" fill="currentColor"/>
<path d="M14.0001 0H12V2H14.0001V0Z" fill="currentColor"/>
<path d="M16.0001 4H14V6H16.0001V4Z" fill="currentColor"/>
<path d="M20.0001 4H18V6H20.0001V4Z" fill="currentColor"/>
<path d="M22.0001 0H20V2H22.0001V0Z" fill="currentColor"/>
<path d="M22.0001 2H20V4H22.0001V2Z" fill="currentColor"/>
<path d="M22.0001 4H20V6H22.0001V4Z" fill="currentColor"/>
<path d="M18.0001 4H16V6H18.0001V4Z" fill="currentColor"/>
<path d="M26.0011 6H24.001V8H26.0011V6Z" fill="currentColor"/>
<path d="M6 -9.77516e-05L6 2L8 2L8 -9.7839e-05L6 -9.77516e-05Z" fill="currentColor"/>
<path d="M4 7.9999L4 10L6 10L6 7.9999L4 7.9999Z" fill="currentColor"/>
<path d="M26.0011 4H24.001V6H26.0011V4Z" fill="currentColor"/>
<path d="M4 3.9999L4 6L6 6L6 3.9999L4 3.9999Z" fill="currentColor"/>
<path d="M28.0001 4H26V6H28.0001V4Z" fill="currentColor"/>
<path d="M34.0001 2H32V4H34.0001V2Z" fill="currentColor"/>
<path d="M4 -9.77516e-05L4 2L6 2L6 -9.7839e-05L4 -9.77516e-05Z" fill="currentColor"/>
<path d="M34.0001 4H32V6H34.0001V4Z" fill="currentColor"/>
<path d="M2 -9.77516e-05L2 2L4 2L4 -9.7839e-05L2 -9.77516e-05Z" fill="currentColor"/>
<path d="M26.0001 2H24V4H26.0001V2Z" fill="currentColor"/>
<path d="M26.0011 0H24.001V2H26.0011V0Z" fill="currentColor"/>
<path d="M28.0011 0H26.001V2H28.0011V0Z" fill="currentColor"/>
<path d="M30.0001 0H28V2H30.0001V0Z" fill="currentColor"/>
<path d="M32.0001 0H30V2H32.0001V0Z" fill="currentColor"/>
<path d="M-8.7427e-08 -9.77516e-05L0 2L2 2L2 -9.7839e-05L-8.7427e-08 -9.77516e-05Z" fill="currentColor"/>
<path d="M34.0001 0H32V2H34.0001V0Z" fill="currentColor"/>
<path d="M18.0001 6H16V8H18.0001V6Z" fill="currentColor"/>
<path d="M18.0001 8H16V10H18.0001V8Z" fill="currentColor"/>
<path d="M14.0001 4H12V6H14.0001V4Z" fill="currentColor"/>
<path d="M4 7.9999L4 10L6 10L6 7.9999L4 7.9999Z" fill="currentColor"/>
<path d="M32.0001 4H30V6H32.0001V4Z" fill="currentColor"/>
<path d="M4 1.9999L4 4L6 4L6 1.9999L4 1.9999Z" fill="currentColor"/>
<path d="M30.0001 4H28V6H30.0001V4Z" fill="currentColor"/>
<path d="M34.0001 4H32V6H34.0001V4Z" fill="currentColor"/>
<path d="M4 5.9999L4 8L6 8L6 5.9999L4 5.9999Z" fill="currentColor"/></symbol>
  <symbol id="i-baserow" viewBox="0 0 20 20"><path d="M11.3984 20H1.07422C0.480469 20 0 19.5195 0 18.9258V16.1328C0 15.5391 0.480469 15.0586 1.07422 15.0586H11.3945C11.9883 15.0586 12.4688 15.5391 12.4688 16.1328V18.9258C12.4727 19.5195 11.9922 20 11.3984 20Z" fill="#4D68C4"/>
<path d="M18.9258 12.4727H1.07422C0.480469 12.4727 0 11.9922 0 11.3984V8.60547C0 8.01172 0.480469 7.53125 1.07422 7.53125H18.9258C19.5195 7.53125 20 8.01172 20 8.60547V11.3984C20 11.9922 19.5195 12.4727 18.9258 12.4727Z" fill="#5190EF"/>
<path d="M18.9258 4.94531H8.60156C8.00781 4.94531 7.52734 4.46484 7.52734 3.87109V1.07422C7.52734 0.480469 8.00781 0 8.60156 0H18.9219C19.5195 0 20 0.480469 20 1.07422V3.86719C20 4.46484 19.5195 4.94531 18.9258 4.94531Z" fill="#2BC3F1"/>
<path d="M18.9258 20H16.1328C15.5391 20 15.0586 19.5195 15.0586 18.9258V16.1328C15.0586 15.5391 15.5391 15.0586 16.1328 15.0586H18.9258C19.5195 15.0586 20 15.5391 20 16.1328V18.9258C20 19.5195 19.5195 20 18.9258 20Z" fill="#4D68C4"/>
<path d="M1.07422 0H3.86719C4.46094 0 4.94141 0.480469 4.94141 1.07422V3.86719C4.94141 4.46094 4.46094 4.94141 3.86719 4.94141H1.07422C0.480469 4.94531 0 4.46484 0 3.87109V1.07422C0 0.480469 0.480469 0 1.07422 0Z" fill="#2BC3F1"/></symbol>
  <symbol id="i-activepieces" viewBox="0 0 20 18"><path d="M6.02212 5.51134C4.91949 3.89303 5.35083 1.6962 6.98556 0.604629C8.6203 -0.486954 10.8394 -0.0599296 11.942 1.5584L19.3892 12.4886C20.4918 14.1069 20.0606 16.3037 18.4258 17.3953C16.791 18.487 14.572 18.0599 13.4693 16.4415L10.2406 11.7027C9.82553 11.1849 8.9806 11.2655 8.47327 11.7678C8.05256 12.1843 7.91483 13.2497 7.79557 14.1723C7.77808 14.3076 7.76099 14.4397 7.74346 14.5664C7.67875 15.1702 7.46813 15.7674 7.10128 16.306C5.90247 18.0654 3.48923 18.5293 1.71191 17.3425C-0.0653898 16.1557 -0.534984 13.7669 0.663825 12.0074C1.28556 11.0949 2.23395 10.5309 3.25086 10.3649L3.24944 10.3634C6.18765 9.94156 6.73241 6.65884 6.19468 5.7646L6.02212 5.51134Z" fill="#8142E3"/></symbol>
  <symbol id="i-comfyui" viewBox="0 0 20 20"><path fill-rule="evenodd" clip-rule="evenodd" d="M4.55433 19.9992C4.04009 19.9992 3.62544 19.8231 3.35474 19.4906C3.0768 19.1488 3.00437 18.6709 3.15557 18.1811L3.76396 16.2126C3.7879 16.1353 3.79218 16.0537 3.77646 15.9746C3.76073 15.8954 3.72544 15.8208 3.67343 15.7568C3.62076 15.6924 3.55303 15.6403 3.47547 15.6045C3.39791 15.5686 3.31262 15.5501 3.22618 15.5502H1.47615C0.961907 15.5502 0.547258 15.3742 0.276559 15.0417C-0.00138323 14.699 -0.0738111 14.2219 0.0773821 13.7321L2.16874 7L2.3996 6.2602C2.71014 5.2568 3.84091 4.44048 4.9219 4.44048H7.01597C7.26585 4.44048 7.48585 4.28741 7.55465 4.06463L8.24634 1.82568C8.55687 0.822279 9.68766 0.00680272 10.7695 0.00680272L15.2465 0H18.5239C19.0381 0 19.4536 0.17517 19.7234 0.507653C20.0014 0.84949 20.0738 1.32738 19.9226 1.81718L18.9856 4.84949C18.675 5.85119 17.5434 6.66667 16.4624 6.66667L11.9755 6.67517H9.88231C9.76159 6.67482 9.644 6.71115 9.54707 6.77874C9.45015 6.84633 9.3791 6.94154 9.34453 7.05017L7.59902 12.6658C7.57492 12.7433 7.57057 12.825 7.58629 12.9043C7.60202 12.9836 7.63739 13.0583 7.68955 13.1224C7.79638 13.2526 7.96116 13.3291 8.1377 13.3291L11.1027 13.324H14.371C14.8853 13.324 15.2999 13.4991 15.5706 13.8325C15.8486 14.1743 15.921 14.6522 15.7698 15.142L14.8318 18.1735C14.5222 19.176 13.3905 19.9915 12.3095 19.9915L7.82173 20H4.55342L4.55433 19.9992Z" fill="#F0FF41"/></symbol>
  <symbol id="i-excalidraw" viewBox="0 0 20 20"><path d="M19.9526 16.5222C19.9329 16.5072 19.9101 16.4969 19.8859 16.492C19.8617 16.4871 19.8366 16.4878 19.8127 16.494C18.7627 14.9439 17.4188 13.4773 16.1305 12.0529L15.9204 11.8156C15.9191 11.7544 15.8648 11.7147 15.8086 11.6899C15.7849 11.6668 15.7617 11.6433 15.7383 11.62C15.6962 11.536 15.5979 11.4802 15.5001 11.536C15.108 11.7321 14.7445 12.0252 14.394 12.3043C13.9326 12.6673 13.4702 13.0308 13.0359 13.4356C12.8584 13.5938 12.6945 13.7666 12.546 13.9524C12.4758 14.05 12.532 14.1339 12.6163 14.1757C12.3078 14.4829 11.9994 14.7907 11.6921 15.1113C11.6639 15.1417 11.6488 15.182 11.6499 15.2235C11.6499 15.2652 11.678 15.307 11.7056 15.3211L12.2522 15.7398V15.754C13.0219 16.5222 14.3804 17.5695 15.8226 18.7008C16.0322 18.8687 16.2563 19.0362 16.4665 19.2036C16.5642 19.3157 16.662 19.4414 16.7462 19.553C16.7884 19.6083 16.8867 19.6229 16.9423 19.5806C16.9704 19.6088 17.0126 19.6364 17.0407 19.6646C17.0661 19.6801 17.0947 19.6898 17.1243 19.6928C17.1463 19.6939 17.1681 19.6894 17.1878 19.6796C17.2075 19.6698 17.2243 19.6551 17.2367 19.637C17.252 19.6114 17.2615 19.5828 17.2643 19.5531C17.2788 19.5531 17.2783 19.5671 17.2923 19.5671C17.3338 19.5682 17.3741 19.5531 17.4047 19.5249L19.953 16.7454C20.0529 16.6486 19.9643 16.5225 19.9526 16.5222ZM13.5961 16.4105L12.3078 15.4326L12.182 15.3492C12.1539 15.3351 12.1258 15.3069 12.0978 15.2934L11.9999 15.2094C12.5497 14.6588 13.108 14.117 13.6663 13.5753C13.2601 13.9801 12.4478 15.1677 12.6158 15.5584C12.6177 15.5584 12.6313 15.5934 12.6719 15.6287C12.9806 15.8886 13.2884 16.1494 13.5961 16.4105ZM17.0126 19.0226L15.9484 18.2121C15.5268 17.7754 15.0877 17.3561 14.6321 16.9551C15.2063 17.388 15.6962 17.7651 15.7664 17.8349C16.3266 18.3237 16.298 18.2402 16.6766 18.5615L17.1384 18.8964C17.0772 18.9825 17.0126 19.0198 17.0126 19.0226ZM17.2923 19.2317L17.2643 19.2177C17.3064 19.19 17.3485 19.1619 17.3907 19.1201L17.2923 19.2317ZM0.490424 2.87698C0.518008 3.05846 0.560675 3.23995 0.588259 3.40789C0.756178 4.32951 0.92418 5.16765 1.2321 5.79616L1.35844 6.27075C1.4006 6.45232 1.47027 6.676 1.54052 6.7319C2.25453 7.36032 3.34672 8.29555 4.52265 9.19001C4.54865 9.21037 4.5807 9.22143 4.61369 9.22143C4.64669 9.22143 4.67873 9.21037 4.70474 9.19001C4.70474 9.19001 4.70473 9.20355 4.71874 9.20355C4.73109 9.21733 4.74628 9.22825 4.76326 9.23555C4.78024 9.24285 4.7986 9.24636 4.81707 9.24583C4.85838 9.2468 4.89845 9.23164 4.92882 9.20355C6.42718 7.54188 7.54703 6.17324 8.34529 5.02795C8.40146 4.97213 8.41554 4.88816 8.41554 4.81823C8.47121 4.76241 8.51329 4.69256 8.56946 4.65078C8.62513 4.59496 8.62513 4.49704 8.56946 4.45476L8.55546 4.44114C8.55546 4.41357 8.54137 4.37129 8.51329 4.35717C8.16329 4.02236 7.91162 3.78498 7.64528 3.53364C6.98089 2.91196 6.32739 2.27868 5.68508 1.63409C5.671 1.61997 5.657 1.60594 5.62892 1.60594C5.34908 1.50834 4.7749 1.41033 4.06081 1.28466C2.99671 1.1036 1.55419 0.852266 0.252254 0.460474C0.252254 0.460474 0.168002 0.460474 0.153919 0.474595L0.112335 0.516874C0.0415006 0.569848 0.0185003 0.56308 0 0.572188C0.0141669 0.656161 0.0141669 0.711976 0.0421673 0.809987C0.0421673 0.837643 0.0982514 1.0614 0.0982514 1.08906L0.490424 2.87698ZM6.48293 6.8711L6.45484 6.89926C6.45533 6.89195 6.45845 6.88507 6.46361 6.87989C6.46878 6.87471 6.47564 6.87159 6.48293 6.8711ZM5.46091 1.84332C5.54508 1.92729 5.89517 2.26268 5.97892 2.33253C5.61483 2.16459 4.70524 1.74581 4.28448 1.60602C4.70474 1.68999 5.27891 1.77397 5.46091 1.84332ZM0.658426 1.14538C0.868513 1.50834 1.03652 2.76535 1.20452 3.9942C1.10618 3.60299 1.03652 3.21237 0.952264 2.84882C0.826429 2.20678 0.70001 1.63409 0.532091 1.13126C0.634759 1.13126 0.658426 1.14897 0.658426 1.14538ZM0.420256 0.837643C0.420256 0.824107 0.420256 0.81007 0.406173 0.81007C0.476424 0.81007 0.518008 0.824107 0.574175 0.851764C0.574675 0.856527 0.453507 0.837643 0.420256 0.837643ZM19.7285 0.656161C19.7425 0.600847 19.4486 0.349512 19.5465 0.33489C19.757 0.321271 19.757 0 19.5465 0C19.2666 0.0141209 18.9728 0.0834719 18.7064 0.125667C18.2166 0.22326 17.7126 0.321271 17.2223 0.432399C16.1164 0.670198 15.0243 0.921617 13.9321 1.21531C13.5961 1.31282 13.2179 1.38268 12.8961 1.55012C12.7838 1.60594 12.7978 1.71757 12.8539 1.78742C12.8259 1.80154 12.8119 1.80154 12.7838 1.81558C12.6859 1.8297 12.6017 1.84373 12.5039 1.85735C12.4197 1.87139 12.3776 1.94124 12.3916 2.0253C12.3916 2.03884 12.4057 2.06699 12.4057 2.08053C11.8174 2.86286 11.1595 3.68697 10.4454 4.56689C9.74539 5.37688 9.00321 6.22906 8.26104 7.10898C5.89467 9.87433 3.22038 13.0168 0.266254 15.782C0.253007 15.7946 0.242458 15.8098 0.235249 15.8266C0.22804 15.8434 0.224322 15.8615 0.224322 15.8798C0.224322 15.8981 0.22804 15.9163 0.235249 15.9331C0.242458 15.9499 0.253007 15.965 0.266254 15.9776C0.280337 15.9913 0.294338 16.0053 0.308421 16.0053C0.266254 16.0476 0.22417 16.0757 0.182003 16.1169C0.153919 16.1451 0.139919 16.1727 0.139919 16.2009C0.118026 16.2213 0.0992668 16.2449 0.0842512 16.2708C0.0280837 16.3266 0.0280837 16.4242 0.0983348 16.4664C0.153919 16.5217 0.252254 16.5217 0.293838 16.4523C0.308421 16.4382 0.308421 16.4242 0.321921 16.4242C0.363148 16.3838 0.418496 16.3612 0.476132 16.3612C0.533768 16.3612 0.589116 16.3838 0.630342 16.4242C0.798345 16.6061 0.966347 16.7876 1.12035 16.941L0.770261 16.6479C0.714094 16.5921 0.616342 16.6061 0.574675 16.662C0.518008 16.7173 0.532091 16.8153 0.588259 16.8575L4.31256 19.9718C4.34065 20 4.36873 20 4.4109 20C4.45298 20 4.48107 19.9859 4.50865 19.9577L4.59282 19.8743C4.60698 19.8879 4.63448 19.8879 4.64857 19.8879C4.69065 19.8879 4.71874 19.8742 4.7469 19.8461C9.78748 14.7906 13.8484 10.9774 18.4969 7.56954C18.5385 7.54188 18.5525 7.48598 18.5525 7.44379C18.6087 7.44379 18.6509 7.40201 18.6784 7.34628C19.5329 4.73475 19.7009 2.41592 19.7565 1.27105C19.7565 1.22267 19.7706 1.24005 19.7706 1.21523C19.7846 1.18707 19.7846 1.17303 19.7846 1.17303C19.8227 0.99926 19.8026 0.817789 19.7285 0.656161ZM10.7117 4.76241C10.9353 4.51108 11.1595 4.24554 11.3837 4.00824C9.94148 5.90779 7.54753 8.82646 4.15856 12.3043C6.46893 9.7485 8.79305 7.10898 10.7117 4.76241ZM4.28456 19.5806C4.27106 19.5666 4.27106 19.5666 4.28456 19.5666V19.5806ZM6.37068 17.7792C6.48301 17.6534 6.59526 17.5419 6.72118 17.4161C6.72118 17.4161 6.72118 17.4298 6.73518 17.4298C6.54885 17.595 6.37401 17.7792 6.37068 17.7792ZM6.94535 17.2205C7.02819 17.1376 7.06202 17.0765 7.18302 16.9551C8.00945 16.1034 8.86338 15.2511 9.73139 14.3853L9.74547 14.3713C9.95556 14.2038 10.2073 14.0223 10.4315 13.8544C9.25524 14.9616 8.0931 16.0837 6.94535 17.2205ZM12.3777 3.24003C11.9158 3.84079 11.3977 4.63674 10.9635 5.26525C9.59156 7.24827 5.18066 12.0947 5.08291 12.1786C3.74219 13.4626 2.39789 14.7429 1.05002 16.0193L0.966264 16.1033C0.896013 16.0193 0.896013 15.8936 0.980264 15.8237C7.21035 9.97176 10.9914 5.09772 12.5179 2.96087C12.4758 3.05838 12.4478 3.14194 12.3777 3.24003ZM14.7997 6.10339C14.24 5.78162 13.9743 5.27878 14.1277 4.79057L14.1699 4.62262C14.1876 4.57356 14.2111 4.52682 14.24 4.48342C14.394 4.23192 14.6182 4.02236 14.8704 3.89661C14.884 3.89661 14.898 3.89661 14.9121 3.88257C14.898 3.85441 14.898 3.81264 14.898 3.77094C14.9121 3.68697 14.9682 3.63115 15.066 3.63115C15.234 3.63115 15.7525 3.78498 15.9485 3.95242C16.0042 3.9942 16.0604 4.05002 16.1166 4.10583C16.1867 4.18972 16.2986 4.32951 16.3542 4.44114C16.3823 4.45526 16.4104 4.59497 16.4526 4.6649C16.4806 4.77653 16.5082 4.9022 16.4947 5.01383C16.4806 5.02795 16.4947 5.11134 16.4806 5.11134C16.456 5.29435 16.3941 5.47032 16.2986 5.62821C16.273 5.65386 16.3039 5.63815 16.2565 5.68403C16.1862 5.79616 16.0885 5.89375 15.9906 5.9636C15.6682 6.18686 15.3041 6.25672 14.9401 6.15912C14.8481 6.1196 14.8008 6.10339 14.7997 6.10339ZM18.4408 7.27643C18.4408 7.29046 18.4268 7.31812 18.4408 7.33216C18.4127 7.33216 18.3987 7.34628 18.3706 7.36032C17.2644 8.16988 16.1862 9.02207 15.1081 9.88837C16.0322 9.06384 16.9564 8.22612 17.9228 7.40209C18.2026 7.15068 18.3987 6.8294 18.4544 6.46636L18.5948 5.6283V5.60056C18.6649 5.43261 18.9308 5.50254 18.8886 5.68411C18.8851 5.68311 18.7444 6.34838 18.4408 7.27643Z" fill="#6965DB"/></symbol>
<symbol id="i-close" viewBox="0 0 10 10"><path d="M1 1l8 8M9 1l-8 8" stroke="currentColor" stroke-width="1.3"/></symbol>
</svg>